<mxfile host="app.diagrams.net" modified="2022-10-07T11:22:28.904Z" agent="5.0 (Windows NT 10.0; Win64; x64) AppleWebKit/537.36 (KHTML, like Gecko) Chrome/105.0.0.0 Safari/537.36" etag="gOACgezMfUx-yq18aIA5" version="20.1.1" type="github">
  <diagram id="zwR3WHHDKpw1IE5MiXN6" name="第 1 页">
    <mxGraphModel dx="1422" dy="753" grid="0" gridSize="10" guides="1" tooltips="1" connect="1" arrows="1" fold="1" page="1" pageScale="1" pageWidth="1169" pageHeight="827" background="#ffffff" math="0" shadow="0">
      <root>
        <mxCell id="0" />
        <mxCell id="1" parent="0" />
        <mxCell id="F3HSEBE1aEr3SzWu70fg-7" style="edgeStyle=orthogonalEdgeStyle;rounded=0;orthogonalLoop=1;jettySize=auto;html=1;" edge="1" parent="1" source="F3HSEBE1aEr3SzWu70fg-1">
          <mxGeometry relative="1" as="geometry">
            <mxPoint x="277" y="296" as="targetPoint" />
          </mxGeometry>
        </mxCell>
        <mxCell id="F3HSEBE1aEr3SzWu70fg-1" value="&lt;font style=&quot;font-size: 19px;&quot;&gt;线程1&lt;/font&gt;" style="rounded=1;whiteSpace=wrap;html=1;fillColor=#fff2cc;strokeColor=#d6b656;" vertex="1" parent="1">
          <mxGeometry x="217" y="144" width="120" height="60" as="geometry" />
        </mxCell>
        <mxCell id="F3HSEBE1aEr3SzWu70fg-8" style="edgeStyle=orthogonalEdgeStyle;rounded=0;orthogonalLoop=1;jettySize=auto;html=1;entryX=0.5;entryY=0;entryDx=0;entryDy=0;" edge="1" parent="1" source="F3HSEBE1aEr3SzWu70fg-2" target="F3HSEBE1aEr3SzWu70fg-4">
          <mxGeometry relative="1" as="geometry" />
        </mxCell>
        <mxCell id="F3HSEBE1aEr3SzWu70fg-2" value="&lt;font style=&quot;font-size: 19px;&quot;&gt;线程2&lt;/font&gt;" style="rounded=1;whiteSpace=wrap;html=1;fillColor=#fff2cc;strokeColor=#d6b656;" vertex="1" parent="1">
          <mxGeometry x="407" y="144" width="120" height="60" as="geometry" />
        </mxCell>
        <mxCell id="F3HSEBE1aEr3SzWu70fg-9" style="edgeStyle=orthogonalEdgeStyle;rounded=0;orthogonalLoop=1;jettySize=auto;html=1;entryX=0.5;entryY=0;entryDx=0;entryDy=0;" edge="1" parent="1" source="F3HSEBE1aEr3SzWu70fg-3" target="F3HSEBE1aEr3SzWu70fg-6">
          <mxGeometry relative="1" as="geometry" />
        </mxCell>
        <mxCell id="F3HSEBE1aEr3SzWu70fg-3" value="&lt;font style=&quot;font-size: 19px;&quot;&gt;线程N&lt;/font&gt;" style="rounded=1;whiteSpace=wrap;html=1;fillColor=#fff2cc;strokeColor=#d6b656;" vertex="1" parent="1">
          <mxGeometry x="607" y="144" width="120" height="60" as="geometry" />
        </mxCell>
        <mxCell id="F3HSEBE1aEr3SzWu70fg-4" value="&lt;font style=&quot;font-size: 17px;&quot;&gt;资源1&lt;/font&gt;" style="ellipse;whiteSpace=wrap;html=1;aspect=fixed;fillColor=#d5e8d4;strokeColor=#82b366;" vertex="1" parent="1">
          <mxGeometry x="427" y="297" width="80" height="80" as="geometry" />
        </mxCell>
        <mxCell id="F3HSEBE1aEr3SzWu70fg-5" value="&lt;font style=&quot;font-size: 17px;&quot;&gt;资源1&lt;/font&gt;" style="ellipse;whiteSpace=wrap;html=1;aspect=fixed;fillColor=#d5e8d4;strokeColor=#82b366;" vertex="1" parent="1">
          <mxGeometry x="237" y="297" width="80" height="80" as="geometry" />
        </mxCell>
        <mxCell id="F3HSEBE1aEr3SzWu70fg-6" value="&lt;font style=&quot;font-size: 17px;&quot;&gt;资源1&lt;/font&gt;" style="ellipse;whiteSpace=wrap;html=1;aspect=fixed;fillColor=#d5e8d4;strokeColor=#82b366;" vertex="1" parent="1">
          <mxGeometry x="627" y="297" width="80" height="80" as="geometry" />
        </mxCell>
        <mxCell id="F3HSEBE1aEr3SzWu70fg-10" value="&lt;b&gt;...&lt;/b&gt;" style="text;html=1;align=center;verticalAlign=middle;resizable=0;points=[];autosize=1;strokeColor=none;fillColor=none;fontSize=17;" vertex="1" parent="1">
          <mxGeometry x="546" y="155" width="32" height="32" as="geometry" />
        </mxCell>
      </root>
    </mxGraphModel>
  </diagram>
</mxfile>
